# xmcd
#
# Track frame offsets:
#	182
#	13747
#	26770
#	46127
#	54075
#	64117
#	78642
#	90222
#	107660
#	121357
#	137812
#	153007
#	166067
#	182347
#
# Disc length: 2588
#
# Revision: 1
# Processed by: cddbd v1.5.1PL0 Copyright (c) Steve Scherf et al.
# Submitted via: dBpowerAMP V4.0
# Normalized: r0:TSWAP
#
DISCID=9e0a1a0e
DTITLE=Various Artist - Live at Gilley's Volume 4
DYEAR=1998
DGENRE=Country
TTITLE0=Lee Greenwood - Ain't No Trick (It Takes Magic)
TTITLE1=Mickey Gilley - Don't The Girls All Get Prettier At Closing Time?
TTITLE2=Carl Perkins - Boppin' The Blues
TTITLE3=Jerry Lee Lewis - Great Balls Of Fire
TTITLE4=Ernest Tubb - Walking The Floor Over You
TTITLE5=Razzy Bailey - She Left Love All Over Me
TTITLE6=Fats Domino - Walking To New Orleans
TTITLE7=Lee Greenwood - Ring On Her Finger, Time On Her Hands
TTITLE8=Freddy Fender - Wasted Days And Wasted Nights
TTITLE9=Michael Martin Murphy - Carolina In The Pines
TTITLE10=Rita Coolidge - Bye, Bye Love
TTITLE11=B. J.Thomas - Hooked On A Feeling
TTITLE12=Bobby Goldsboro - Honey
TTITLE13=Ernest Tubb - I'm Goona Make My Home A Million Miles From Here
EXTD=
EXTT0=
EXTT1=
EXTT2=
EXTT3=
EXTT4=
EXTT5=
EXTT6=
EXTT7=
EXTT8=
EXTT9=
EXTT10=
EXTT11=
EXTT12=
EXTT13=
PLAYORDER=
